<svg width="2476" height="4396" viewBox="0 0 2476 4396" fill="none" xmlns="http://www.w3.org/2000/svg">
<rect x="128" y="339.986" width="2192" height="3716.35" fill="#FCD612" fill-opacity="0.53"/>
<path d="M2380.15 138.298C2369.42 133.744 2357.84 133.609 2347.05 137.913C2336.26 142.216 2326.8 150.741 2320.02 162.279L2201.48 363.814L2082.94 162.279C2077.7 154.163 2071.12 147.626 2063.67 143.138C2056.22 138.65 2048.08 136.323 2039.84 136.323C2031.59 136.323 2023.45 138.65 2016 143.138C2008.55 147.626 2001.97 154.163 1996.73 162.279L1878.19 363.814L1759.65 162.279C1754.41 154.163 1747.83 147.626 1740.38 143.138C1732.93 138.65 1724.79 136.323 1716.55 136.323C1708.3 136.323 1700.16 138.65 1692.71 143.138C1685.26 147.626 1678.68 154.163 1673.44 162.279L1554.9 363.814L1436.36 162.279C1431.12 154.163 1424.54 147.626 1417.09 143.138C1409.64 138.65 1401.5 136.323 1393.26 136.323C1385.01 136.323 1376.87 138.65 1369.42 143.138C1361.97 147.626 1355.39 154.163 1350.15 162.279L1231.61 363.814L1113.07 162.279C1107.83 154.163 1101.25 147.626 1093.8 143.138C1086.35 138.65 1078.21 136.323 1069.97 136.323C1061.72 136.323 1053.58 138.65 1046.13 143.138C1038.68 147.626 1032.1 154.163 1026.86 162.279L908.321 363.814L789.781 162.279C784.544 154.163 777.963 147.626 770.51 143.138C763.057 138.65 754.918 136.323 746.676 136.323C738.434 136.323 730.294 138.65 722.841 143.138C715.388 147.626 708.807 154.163 703.57 162.279L585.031 363.814L466.491 162.279C461.254 154.163 454.673 147.626 447.22 143.138C439.767 138.65 431.628 136.323 423.386 136.323C415.144 136.323 407.004 138.65 399.551 143.138C392.098 147.626 385.517 154.163 380.28 162.279L261.741 363.814L143.201 162.279C136.416 150.742 126.956 142.219 116.162 137.919C105.367 133.619 93.7855 133.759 83.057 138.32C72.3285 142.88 62.9972 151.63 56.3848 163.329C49.7724 175.029 46.2142 189.085 46.2142 203.507V4188.85C46.2142 4203.27 49.7724 4217.33 56.3848 4229.03C62.9972 4240.73 72.3285 4249.48 83.057 4254.04C93.7855 4258.6 105.367 4258.74 116.162 4254.44C126.956 4250.14 136.416 4241.62 143.201 4230.08L261.741 4028.55L380.28 4230.08C385.517 4238.2 392.098 4244.73 399.551 4249.22C407.004 4253.71 415.144 4256.04 423.386 4256.04C431.628 4256.04 439.767 4253.71 447.22 4249.22C454.673 4244.73 461.254 4238.2 466.491 4230.08L585.031 4028.55L703.57 4230.08C708.807 4238.2 715.388 4244.73 722.841 4249.22C730.294 4253.71 738.434 4256.04 746.676 4256.04C754.918 4256.04 763.057 4253.71 770.51 4249.22C777.963 4244.73 784.544 4238.2 789.781 4230.08L908.321 4028.55L1026.86 4230.08C1032.1 4238.2 1038.68 4244.73 1046.13 4249.22C1053.58 4253.71 1061.72 4256.04 1069.97 4256.04C1078.21 4256.04 1086.35 4253.71 1093.8 4249.22C1101.25 4244.73 1107.83 4238.2 1113.07 4230.08L1231.61 4028.55L1350.15 4230.08C1355.39 4238.2 1361.97 4244.73 1369.42 4249.22C1376.87 4253.71 1385.01 4256.04 1393.26 4256.04C1401.5 4256.04 1409.64 4253.71 1417.09 4249.22C1424.54 4244.73 1431.12 4238.2 1436.36 4230.08L1554.9 4028.55L1673.44 4230.08C1678.68 4238.2 1685.26 4244.73 1692.71 4249.22C1700.16 4253.71 1708.3 4256.04 1716.55 4256.04C1724.79 4256.04 1732.93 4253.71 1740.38 4249.22C1747.83 4244.73 1754.41 4238.2 1759.65 4230.08L1878.19 4028.55L1996.73 4230.08C2001.97 4238.2 2008.55 4244.73 2016 4249.22C2023.45 4253.71 2031.59 4256.04 2039.84 4256.04C2048.08 4256.04 2056.22 4253.71 2063.67 4249.22C2071.12 4244.73 2077.7 4238.2 2082.94 4230.08L2201.48 4028.55L2320.02 4230.08C2325.04 4238.61 2331.55 4245.54 2339.03 4250.31C2346.51 4255.08 2354.76 4257.57 2363.13 4257.57C2368.91 4257.55 2374.66 4256.37 2380.15 4254.06C2390.89 4249.5 2400.22 4240.75 2406.84 4229.05C2413.45 4217.34 2417.01 4203.28 2417.01 4188.85V203.507C2417.01 189.079 2413.45 175.017 2406.84 163.313C2400.22 151.609 2390.89 142.857 2380.15 138.298ZM2309.24 3982.71L2244.59 3872.77C2239.35 3864.66 2232.77 3858.12 2225.31 3853.63C2217.86 3849.14 2209.72 3846.82 2201.48 3846.82C2193.24 3846.82 2185.1 3849.14 2177.65 3853.63C2170.19 3858.12 2163.61 3864.66 2158.37 3872.77L2039.84 4074.31L1921.3 3872.77C1916.28 3864.24 1909.77 3857.31 1902.29 3852.54C1894.81 3847.77 1886.56 3845.29 1878.19 3845.29C1869.83 3845.29 1861.58 3847.77 1854.09 3852.54C1846.61 3857.31 1840.1 3864.24 1835.09 3872.77L1716.55 4074.31L1598.01 3872.77C1592.77 3864.66 1586.19 3858.12 1578.73 3853.63C1571.28 3849.14 1563.14 3846.82 1554.9 3846.82C1546.66 3846.82 1538.52 3849.14 1531.07 3853.63C1523.61 3858.12 1517.03 3864.66 1511.8 3872.77L1393.26 4074.31L1274.72 3872.77C1269.48 3864.66 1262.9 3858.12 1255.44 3853.63C1247.99 3849.14 1239.85 3846.82 1231.61 3846.82C1223.37 3846.82 1215.23 3849.14 1207.78 3853.63C1200.32 3858.12 1193.74 3864.66 1188.51 3872.77L1069.97 4074.31L951.426 3872.77C946.189 3864.66 939.608 3858.12 932.155 3853.63C924.702 3849.14 916.563 3846.82 908.321 3846.82C900.079 3846.82 891.939 3849.14 884.486 3853.63C877.033 3858.12 870.452 3864.66 865.215 3872.77L746.676 4074.31L628.136 3872.77C622.899 3864.66 616.318 3858.12 608.865 3853.63C601.412 3849.14 593.273 3846.82 585.031 3846.82C576.789 3846.82 568.649 3849.14 561.196 3853.63C553.743 3858.12 547.162 3864.66 541.925 3872.77L423.386 4074.31L304.846 3872.77C299.609 3864.66 293.028 3858.12 285.575 3853.63C278.122 3849.14 269.983 3846.82 261.741 3846.82C253.499 3846.82 245.359 3849.14 237.906 3853.63C230.453 3858.12 223.872 3864.66 218.635 3872.77L153.978 3982.71V409.645L218.635 519.586C223.872 527.702 230.453 534.239 237.906 538.727C245.359 543.214 253.499 545.542 261.741 545.542C269.983 545.542 278.122 543.214 285.575 538.727C293.028 534.239 299.609 527.702 304.846 519.586L423.386 318.051L541.925 519.586C547.162 527.702 553.743 534.239 561.196 538.727C568.649 543.214 576.789 545.542 585.031 545.542C593.273 545.542 601.412 543.214 608.865 538.727C616.318 534.239 622.899 527.702 628.136 519.586L746.676 318.051L865.215 519.586C870.452 527.702 877.033 534.239 884.486 538.727C891.939 543.214 900.079 545.542 908.321 545.542C916.563 545.542 924.702 543.214 932.155 538.727C939.608 534.239 946.189 527.702 951.426 519.586L1069.97 318.051L1188.51 519.586C1193.74 527.702 1200.32 534.239 1207.78 538.727C1215.23 543.214 1223.37 545.542 1231.61 545.542C1239.85 545.542 1247.99 543.214 1255.44 538.727C1262.9 534.239 1269.48 527.702 1274.72 519.586L1393.26 318.051L1511.8 519.586C1517.03 527.702 1523.61 534.239 1531.07 538.727C1538.52 543.214 1546.66 545.542 1554.9 545.542C1563.14 545.542 1571.28 543.214 1578.73 538.727C1586.19 534.239 1592.77 527.702 1598.01 519.586L1716.55 318.051L1835.09 519.586C1840.32 527.702 1846.9 534.239 1854.36 538.727C1861.81 543.214 1869.95 545.542 1878.19 545.542C1886.43 545.542 1894.57 543.214 1902.02 538.727C1909.48 534.239 1916.06 527.702 1921.3 519.586L2039.84 318.051L2158.37 519.586C2163.61 527.702 2170.19 534.239 2177.65 538.727C2185.1 543.214 2193.24 545.542 2201.48 545.542C2209.72 545.542 2217.86 543.214 2225.31 538.727C2232.77 534.239 2239.35 527.702 2244.59 519.586L2309.24 409.645V3982.71Z" fill="#FCD612"/>
</svg>
