<svg width="168" height="121" viewBox="0 0 168 121" fill="none" xmlns="http://www.w3.org/2000/svg">
<path d="M69.1139 119.63C97.8048 119.63 121.063 96.3225 121.063 67.5713C121.063 38.82 97.8048 15.5125 69.1139 15.5125C40.4231 15.5125 17.1646 38.82 17.1646 67.5713C17.1646 96.3225 40.4231 119.63 69.1139 119.63Z" fill="#F2F2F2"/>
<path d="M138.944 29.2381L133.524 35.6773C133.232 38.4508 132.817 41.5499 132.229 44.8012L141.133 35.5697L141.175 35.7309C140.668 33.2502 139.902 30.9995 138.894 29.0854L138.944 29.2381Z" fill="#477BFF"/>
<path d="M133.574 35.1907L138.824 28.9533C137.679 26.8187 136.227 25.1135 134.493 23.9945C134.403 23.9363 134.312 23.8814 134.221 23.8268C134.223 24.5851 134.201 29.0355 133.574 35.1907Z" fill="#477BFF"/>
<path d="M140.299 55.1529L140.311 55.3398C140.614 54.1952 140.874 53.0492 141.09 51.9017L128.177 60.2566L128.168 60.1714C127.924 60.8379 127.673 61.492 127.415 62.1336L140.299 55.1529Z" fill="#477BFF"/>
<path d="M141.838 45.0012L141.864 45.1782C142.012 42.0718 141.792 38.9587 141.209 35.9041L132.135 45.3114C131.57 48.3562 130.905 51.254 130.14 54.005L141.838 45.0012Z" fill="#477BFF"/>
<path d="M118.943 29.2615C117.602 31.0219 116.441 32.9137 115.479 34.908L130.434 52.0163C131.05 49.6167 131.547 47.2898 131.946 45.1198L118.865 29.431L118.943 29.2615Z" fill="#477BFF"/>
<path d="M114.422 37.2571L114.498 37.0855L129.857 54.1615C130.022 53.5768 130.18 52.9953 130.331 52.4169L115.32 35.2454L115.397 35.0745C115.058 35.7771 114.733 36.5046 114.422 37.2571Z" fill="#477BFF"/>
<path d="M141.113 51.4981L141.131 51.6808C141.513 49.6 141.756 47.4957 141.856 45.3822L129.999 54.5078C129.478 56.3393 128.914 58.0978 128.307 59.7834L141.113 51.4981Z" fill="#477BFF"/>
<path d="M123.998 69.2476C121.989 72.7521 119.712 75.7147 117.191 78.1004C119.98 76.9731 131.217 72.0066 137.04 63.0502L123.998 69.2476Z" fill="#477BFF"/>
<path d="M112.086 45.9489C111.863 47.9693 111.776 50.0023 111.824 52.0343L111.918 51.8521L123.963 68.7853C125.07 66.8136 126.057 64.7772 126.919 62.687L112.086 45.9489Z" fill="#477BFF"/>
<path d="M133.353 35.1718C134.028 28.5121 133.992 23.8715 133.992 23.8049L134.106 23.7582C131.395 22.1829 128.398 22.2377 125.479 23.6379L133.353 35.1718Z" fill="#477BFF"/>
<path d="M127.212 62.629C127.131 62.8274 127.05 63.027 126.967 63.2229C126.177 65.103 125.286 66.9386 124.296 68.7216L137.214 62.5829L137.221 62.7664C138.233 61.181 139.041 59.4735 139.625 57.6846C139.851 56.9807 140.059 56.2742 140.251 55.5652L127.212 62.629Z" fill="#477BFF"/>
<path d="M132.025 44.6866C132.604 41.4719 133.013 38.4091 133.301 35.6679L125.247 23.8692L125.332 23.7081C123.139 24.7951 120.993 26.6417 119.05 29.1255L132.025 44.6866Z" fill="#477BFF"/>
<path d="M123.786 69.0976L111.829 52.2883C112.117 64.473 116.269 77.4769 116.537 78.3038C119.408 75.7269 121.798 72.5587 123.786 69.0976Z" fill="#477BFF"/>
<path d="M127.058 62.3269L127.07 62.3202C128.101 59.7807 128.993 57.1875 129.745 54.5517L114.349 37.4337C113.933 38.455 113.546 39.519 113.19 40.6256C112.693 42.2127 112.341 43.842 112.14 45.4932L127.058 62.3269Z" fill="#477BFF"/>
<path d="M151.127 79.2642L142.855 80.7596C140.864 82.7088 138.572 84.8307 136.05 86.959L148.784 85.5403L148.714 85.6912C149.902 83.4566 150.744 81.2333 151.186 79.1149L151.127 79.2642Z" fill="#477BFF"/>
<path d="M143.203 80.4171L151.217 78.9686C151.693 76.5921 151.661 74.3513 151.037 72.3812C151.005 72.2787 150.97 72.1783 150.935 72.0782C150.453 72.663 147.603 76.0766 143.203 80.4171Z" fill="#477BFF"/>
<path d="M135.677 100.09L135.567 100.241C136.53 99.5537 137.459 98.837 138.355 98.091L123.092 96.2724L123.14 96.2014C122.528 96.5586 121.918 96.9019 121.311 97.2312L135.677 100.09Z" fill="#477BFF"/>
<path d="M143.324 93.2547L143.231 93.4078C145.322 91.1096 147.134 88.5714 148.629 85.8461L135.653 87.2917C133.28 89.2758 130.924 91.0826 128.583 92.7123L143.324 93.2547Z" fill="#477BFF"/>
<path d="M135.708 66.4988C133.555 66.9971 131.457 67.7122 129.446 68.6332L130.076 91.369C132.078 89.9145 133.941 88.4396 135.63 87.0236L135.54 66.579L135.708 66.4988Z" fill="#477BFF"/>
<path d="M127.137 69.7672L127.305 69.6837L128.265 92.6518C128.765 92.3071 129.257 91.9603 129.741 91.6113L129.109 68.7917L129.277 68.7094C128.569 69.0334 127.855 69.386 127.137 69.7672Z" fill="#477BFF"/>
<path d="M138.63 97.7948L138.528 97.9471C140.147 96.5891 141.673 95.1232 143.095 93.5593L128.155 93.0096C126.588 94.0874 125.035 95.0813 123.494 95.9914L138.63 97.7948Z" fill="#477BFF"/>
<path d="M114.152 100.527C110.374 101.942 106.734 102.768 103.274 102.994C106.139 103.908 117.955 107.265 128.141 104.089L114.152 100.527Z" fill="#477BFF"/>
<path d="M119.806 74.9682C118.348 76.3819 116.987 77.8919 115.731 79.4881L115.919 79.4076L114.419 100.148C116.526 99.3366 118.582 98.3991 120.577 97.3407L119.806 74.9682Z" fill="#477BFF"/>
<path d="M143.045 80.2606C147.804 75.5632 150.73 71.966 150.771 71.9143L150.89 71.9517C149.804 69.0051 147.461 67.132 144.321 66.3447L143.045 80.2606Z" fill="#477BFF"/>
<path d="M120.84 97.4833C120.651 97.584 120.461 97.6861 120.273 97.7841C118.468 98.7271 116.613 99.571 114.716 100.312L128.572 103.841L128.461 103.986C130.249 103.412 131.958 102.613 133.546 101.609C134.169 101.211 134.779 100.8 135.377 100.376L120.84 97.4833Z" fill="#477BFF"/>
<path d="M135.966 86.7403C138.458 84.6343 140.722 82.5367 142.689 80.6099L143.996 66.3747L144.164 66.305C141.782 65.7403 138.955 65.7913 135.877 66.4621L135.966 86.7403Z" fill="#477BFF"/>
<path d="M114.084 100.276L115.573 79.6867C108.04 89.2554 102.961 101.924 102.641 102.732C106.492 102.583 110.349 101.67 114.084 100.276Z" fill="#477BFF"/>
<path d="M120.913 97.1522L120.927 97.1549C123.336 95.8574 125.675 94.4307 127.931 92.8812L126.968 69.8564C125.998 70.3772 125.023 70.9496 124.044 71.5738C122.651 72.4786 121.344 73.5089 120.137 74.6517L120.913 97.1522Z" fill="#477BFF"/>
<path d="M108.163 51.5445L104.994 59.3471C105.572 62.0753 106.133 65.1512 106.577 68.4253L112.198 56.8878L112.287 57.0282C111.04 54.8258 109.617 52.9228 108.068 51.4147L108.163 51.5445Z" fill="#477BFF"/>
<path d="M104.892 58.8687L107.961 51.3105C106.213 49.6353 104.307 48.4631 102.313 47.936C102.209 47.9086 102.106 47.8845 102.002 47.8608C102.238 48.5816 103.589 52.8209 104.892 58.8687Z" fill="#477BFF"/>
<path d="M117.445 75.7703L117.514 75.9446C117.449 74.7619 117.343 73.5916 117.194 72.4335L107.49 84.3791L107.456 84.3007C107.429 85.0102 107.392 85.71 107.345 86.4001L117.445 75.7703Z" fill="#477BFF"/>
<path d="M115.777 65.6391L115.857 65.7993C115.039 62.7993 113.87 59.9068 112.373 57.1824L106.645 68.9397C107.047 72.0103 107.308 74.9723 107.429 77.8255L115.777 65.6391Z" fill="#477BFF"/>
<path d="M89.1487 57.7618C88.4158 59.8516 87.8954 62.0103 87.5955 64.205L107.096 75.843C106.941 73.3702 106.696 71.0034 106.406 68.8159L89.1261 57.9474L89.1487 57.7618Z" fill="#477BFF"/>
<path d="M87.3152 66.7663L87.3347 66.5796L107.208 78.0622C107.185 77.4549 107.156 76.8529 107.121 76.256L87.5486 64.575L87.5692 64.3886C87.463 65.1619 87.3783 65.9545 87.3152 66.7663Z" fill="#477BFF"/>
<path d="M117.091 72.0427L117.165 72.2107C116.887 70.1133 116.468 68.037 115.911 65.9961L107.45 78.3473C107.52 80.2504 107.526 82.0975 107.468 83.8887L117.091 72.0427Z" fill="#477BFF"/>
<path d="M106.29 94.2241C105.46 98.1794 104.208 101.702 102.546 104.752C104.851 102.816 114.006 94.6122 116.782 84.2905L106.29 94.2241Z" fill="#477BFF"/>
<path d="M87.7743 75.7562C88.1857 77.7465 88.7297 79.707 89.4027 81.6245L89.4356 81.4223L106.114 93.7952C106.558 91.5775 106.868 89.335 107.044 87.08L87.7743 75.7562Z" fill="#477BFF"/>
<path d="M104.675 58.9194C103.264 52.3765 101.798 47.9744 101.777 47.9113L101.872 47.8313C98.8068 47.1731 95.9738 48.1534 93.6298 50.3891L104.675 58.9194Z" fill="#477BFF"/>
<path d="M107.305 86.934C107.289 87.1479 107.273 87.3627 107.255 87.5747C107.084 89.6075 106.802 91.6295 106.411 93.6316L116.803 83.792L116.866 83.9645C117.339 82.1432 117.581 80.2692 117.584 78.3871C117.582 77.6476 117.563 76.9111 117.526 76.1776L107.305 86.934Z" fill="#477BFF"/>
<path d="M106.348 68.3795C105.907 65.1429 105.351 62.1035 104.78 59.4071L93.4806 50.6811L93.5117 50.5015C91.7611 52.2147 90.2903 54.6354 89.2081 57.5996L106.348 68.3795Z" fill="#477BFF"/>
<path d="M106.042 94.147L89.4855 81.8646C93.5179 93.3634 101.477 104.445 101.987 105.148C103.923 101.808 105.218 98.0546 106.042 94.147Z" fill="#477BFF"/>
<path d="M107.065 86.6945L107.075 86.6844C107.271 83.9502 107.32 81.2073 107.222 78.4678L87.3 66.957C87.2194 68.0571 87.1801 69.1887 87.1821 70.3516C87.199 72.015 87.3674 73.6733 87.685 75.306L107.065 86.6945Z" fill="#477BFF"/>
<path d="M84 121C130.392 121 168 118.819 168 116.129C168 113.439 130.392 111.258 84 111.258C37.6081 111.258 0 113.439 0 116.129C0 118.819 37.6081 121 84 121Z" fill="#3F3D56"/>
<path opacity="0.1" d="M113.165 109.924C113.165 119.391 99.9963 116.463 83.8731 116.463C67.7499 116.463 54.7773 119.391 54.7773 109.924C54.7773 100.457 67.9438 98.3978 84.067 98.3978C100.19 98.3978 113.165 100.457 113.165 109.924Z" fill="black"/>
<path d="M113.165 107.593C113.165 117.06 99.9963 114.132 83.8731 114.132C67.7499 114.132 54.7773 117.06 54.7773 107.593C54.7773 98.1258 67.9438 96.0668 84.067 96.0668C100.19 96.0668 113.165 98.1258 113.165 107.593Z" fill="#3F3D56"/>
<path d="M116.35 68.1327C116.35 68.1327 116.35 84.0227 117.198 87.5403C118.045 91.0579 121.071 103.794 121.071 103.794L125.187 102.945C125.187 102.945 124.46 86.0847 123.734 83.6588C123.008 81.2328 124.581 71.2864 126.639 69.1031C128.697 66.9197 125.671 65.5854 125.671 65.5854L116.35 68.1327Z" fill="#2F2E41"/>
<path opacity="0.1" d="M116.35 68.1327C116.35 68.1327 116.35 84.0227 117.198 87.5403C118.045 91.0579 121.071 103.794 121.071 103.794L125.187 102.945C125.187 102.945 124.46 86.0847 123.734 83.6588C123.008 81.2328 124.581 71.2864 126.639 69.1031C128.697 66.9197 125.671 65.5854 125.671 65.5854L116.35 68.1327Z" fill="black"/>
<path d="M126.276 100.762C126.276 100.762 120.829 102.945 120.466 102.945C120.103 102.945 119.861 109.253 119.861 109.253C119.861 109.253 120.224 113.013 114.293 114.226C108.362 115.439 119.013 118.107 120.95 116.773C122.887 115.439 123.734 114.468 123.734 114.468L124.46 113.255L124.218 115.317L125.065 115.439L127.002 111.557C127.002 111.557 127.486 108.646 126.881 107.918C126.276 107.191 126.276 100.762 126.276 100.762Z" fill="#2F2E41"/>
<path d="M98.9203 77.9578L99.7676 82.6885L103.762 82.3245L103.036 78.9282L98.9203 77.9578Z" fill="#A0616A"/>
<path d="M118.529 57.9437L117.803 59.1567C117.803 59.1567 96.8626 56.2455 96.8626 64.0086C96.8626 71.7716 95.8943 76.3809 95.6522 76.7448C95.4101 77.1087 101.946 80.9902 103.399 80.7476C103.399 80.7476 104.367 79.4133 104.246 77.7152C104.125 76.017 105.215 69.7095 104.246 69.3456C104.246 69.3456 105.457 68.8605 105.336 68.1327C105.336 68.1327 122.403 70.5586 124.581 70.0734C126.76 69.5882 128.213 68.0114 128.576 67.041C128.939 66.0706 129.717 62.2854 129.717 62.2854L129.544 55.8816L127.607 53.577L124.702 53.2131L120.224 56.0029L118.529 57.9437Z" fill="#2F2E41"/>
<path d="M131.481 69.467C131.481 69.467 129.786 73.3485 131.723 73.3485C133.66 73.3485 134.386 69.9522 134.386 69.9522L131.481 69.467Z" fill="#A0616A"/>
<path d="M118.529 38.0509L117.924 37.3231C117.924 37.3231 111.146 22.0396 113.809 17.9155C116.471 13.7914 128.092 13.1849 128.455 13.4275C128.818 13.6701 129.907 14.5192 129.786 14.7618C129.665 15.0044 127.244 15.6109 128.092 17.0664C128.092 17.0664 126.881 17.4303 126.639 16.9451C126.397 16.46 125.671 16.3387 125.429 16.8238C125.187 17.309 121.313 18.4007 121.313 18.7646C121.313 19.1285 120.708 20.948 120.103 21.1906C119.498 21.4331 120.224 25.0721 121.434 26.0425C122.645 27.0128 123.492 29.6814 123.492 29.6814L122.887 35.1398L118.529 38.0509Z" fill="#D0CDE1"/>
<path d="M121.993 17.6399C121.269 18.0092 120.549 18.481 120.112 19.2243C119.219 20.7456 119.79 22.8268 119.236 24.538C119 25.2677 118.57 25.8948 118.215 26.5617C117.86 27.2287 117.571 27.9912 117.664 28.7601C117.755 29.5143 118.198 30.154 118.407 30.8784C118.767 32.1249 118.406 33.4763 118 34.7049C117.777 35.3776 117.54 36.0442 117.29 36.7047C117.144 37.0878 116.969 37.4984 116.635 37.683L119.5 37.9185C120.332 37.9869 121.252 38.0272 121.907 37.4482C122.173 37.1935 122.386 36.8883 122.534 36.5504C123.18 35.1972 123.285 33.6016 123.21 32.0701C123.136 30.5385 122.897 29.0166 122.91 27.4829C122.896 26.9794 122.964 26.4769 123.111 25.9951C123.264 25.6187 123.443 25.254 123.649 24.9037C124.302 23.6421 124.571 22.1858 124.832 20.7579C125.01 19.7788 125.295 18.3604 124.784 17.4404C124.275 16.5232 122.682 17.2886 121.993 17.6399Z" fill="#2F2E41"/>
<path d="M124.823 28.3471C127.564 28.3471 129.786 26.1205 129.786 23.3739C129.786 20.6273 127.564 18.4007 124.823 18.4007C122.083 18.4007 119.861 20.6273 119.861 23.3739C119.861 26.1205 122.083 28.3471 124.823 28.3471Z" fill="#A0616A"/>
<path d="M122.887 27.6193C122.887 27.6193 123.674 30.7124 123.189 32.2893C122.705 33.8661 129.786 30.1666 129.786 30.1666C129.786 30.1666 127.607 27.2554 127.607 26.285L122.887 27.6193Z" fill="#A0616A"/>
<path d="M131.965 32.3499C131.965 32.3499 130.391 31.1369 130.391 30.5304C130.391 29.9239 129.302 28.5897 129.302 28.5897C129.302 28.5897 124.097 31.2582 123.855 31.2582C123.613 31.2582 123.492 29.6813 123.492 29.6813L117.924 37.3231C117.924 37.3231 116.108 41.6898 116.714 45.0861C117.319 48.4824 118.287 52.0001 117.803 55.1538C117.319 58.3075 117.924 59.3992 118.65 59.0353C119.377 58.6714 118.65 57.4585 120.224 57.5798C121.797 57.7011 127.123 56.0029 127.486 55.2751C127.85 54.5473 129.302 56.852 129.423 58.1862C129.544 59.5205 129.181 63.1594 129.423 63.0381C129.665 62.9169 130.028 60.8548 130.149 59.8844C130.27 58.914 130.634 55.7603 130.149 55.2751C129.665 54.7899 130.028 54.0621 130.391 53.8195C130.755 53.5769 136.686 38.5361 136.686 38.5361C136.686 38.5361 136.08 35.3823 134.023 34.2906C131.965 33.199 131.965 32.3499 131.965 32.3499Z" fill="#D0CDE1"/>
<path d="M134.749 36.4741L136.686 38.5361V49.4529C136.686 49.4529 139.228 62.553 137.654 63.2808C136.08 64.0086 135.354 63.766 135.354 63.766C135.354 63.766 135.717 70.4374 134.628 70.4374C133.539 70.4374 131.844 69.9522 130.876 70.1948C130.876 70.1948 131.118 67.7688 131.844 66.6771C132.57 65.5855 132.57 63.6447 132.57 63.6447C132.57 63.6447 131.481 63.6447 131.481 62.0678C131.481 60.491 131.36 59.5206 131.239 59.1567C131.118 58.7928 130.27 52.364 130.27 52.364L134.749 36.4741Z" fill="#D0CDE1"/>
<path d="M123.764 17.3885C124.602 16.8549 125.713 17.2588 126.686 17.0621C127.744 16.8483 128.625 15.9238 129.703 15.9765C130.6 16.0202 131.308 16.7287 131.888 17.4147C132.431 18.0222 132.898 18.693 133.281 19.4127C133.678 20.2124 133.895 21.0881 134.108 21.9556L134.824 24.8657C135.066 25.8522 135.312 26.8469 135.753 27.7619C136.193 28.6769 136.85 29.5182 137.741 30.0028C136.651 30.3325 135.489 30.3362 134.396 30.0136C134.816 31.1111 135.509 32.0825 136.41 32.835C135.603 33.0819 134.733 32.8331 133.89 32.8867C133.286 32.9319 132.703 33.1303 132.196 33.4632C131.689 33.7961 131.275 34.2526 130.993 34.7899C130.553 35.6496 130.485 36.6458 130.223 37.5754C129.438 40.3501 126.709 42.4482 123.831 42.488C124.638 41.3227 125.485 39.97 125.172 38.5866C124.984 37.7505 124.388 37.0486 124.212 36.2097C124.023 35.3131 124.335 34.3985 124.547 33.5072C124.759 32.6158 124.847 31.5924 124.296 30.8614C123.711 30.0864 122.538 29.8305 122.161 28.9354C122.046 28.6036 121.995 28.2528 122.012 27.902L121.988 26.3069C121.967 25.9725 121.995 25.6368 122.072 25.3107C122.196 24.8834 122.482 24.5252 122.754 24.1736C123.272 23.5056 123.775 22.7951 123.976 21.9737C124.219 20.9762 123.841 20.3574 123.356 19.55C122.937 18.8517 123.036 17.8519 123.764 17.3885Z" fill="#2F2E41"/>
<path d="M129.06 14.2766C129.06 14.2766 134.628 19.1285 133.175 20.8267C131.723 22.5249 129.423 17.673 129.423 17.673L127.002 15.8535L129.06 14.2766Z" fill="#A0616A"/>
<path d="M105.82 79.4134C105.82 79.4134 99.4045 80.9903 98.6782 82.3245C98.6782 82.3245 97.8309 86.4487 97.8309 88.1468C97.8309 89.845 97.4678 92.9987 94.0786 93.6052C90.6894 94.2117 88.2686 95.3034 92.8682 96.1525C97.4678 97.0016 98.7993 97.2442 100.131 95.4247C101.462 93.6052 102.188 93.12 102.188 93.12L103.157 95.546H103.762L106.062 90.5728C106.062 90.5728 106.304 88.1468 105.699 86.6913C105.094 85.2357 105.82 79.4134 105.82 79.4134Z" fill="#2F2E41"/>
<path d="M129.726 14.7011C129.726 14.7011 129.541 16.6419 126.91 17.0058L126.336 15.1863L128.152 13.6094L129.726 14.7011Z" fill="#D0CDE1"/>
<path d="M65.0894 89.2913C72.3041 89.2913 78.1527 83.4304 78.1527 76.2005C78.1527 68.9707 72.3041 63.1097 65.0894 63.1097C57.8748 63.1097 52.0261 68.9707 52.0261 76.2005C52.0261 83.4304 57.8748 89.2913 65.0894 89.2913Z" fill="#477BFF"/>
<path d="M58.4453 56.7591H58.4452C56.03 57.5711 53.3994 57.4519 51.0671 56.4247C48.7348 55.3975 46.8683 53.536 45.832 51.2038L31.6721 19.3363C30.8949 17.5872 30.4911 15.6946 30.4865 13.7799C30.4819 11.8652 30.8766 9.97068 31.6454 8.2178C32.4142 6.46493 33.54 4.8924 34.9507 3.60105C36.3614 2.3097 38.0259 1.32805 39.8374 0.719033L39.8374 0.719022C41.658 0.106931 43.5865 -0.115139 45.4982 0.0671924C47.4099 0.249524 49.2621 0.832192 50.9347 1.77746C52.6074 2.72273 54.0633 4.00953 55.2081 5.55451C56.353 7.0995 57.1612 8.86822 57.5806 10.7461L65.1819 44.7882C65.735 47.2651 65.3525 49.8596 64.1083 52.0704C62.8642 54.2813 60.8466 55.9517 58.4453 56.7591Z" fill="#477BFF"/>
<path opacity="0.1" d="M65.0894 89.2913C72.3041 89.2913 78.1527 83.4304 78.1527 76.2005C78.1527 68.9707 72.3041 63.1097 65.0894 63.1097C57.8748 63.1097 52.0261 68.9707 52.0261 76.2005C52.0261 83.4304 57.8748 89.2913 65.0894 89.2913Z" fill="black"/>
<path opacity="0.1" d="M58.4453 56.7591H58.4452C56.03 57.5711 53.3994 57.4519 51.0671 56.4247C48.7348 55.3975 46.8683 53.536 45.832 51.2038L31.6721 19.3363C30.8949 17.5872 30.4911 15.6946 30.4865 13.7799C30.4819 11.8652 30.8766 9.97068 31.6454 8.2178C32.4142 6.46493 33.54 4.8924 34.9507 3.60105C36.3614 2.3097 38.0259 1.32805 39.8374 0.719033L39.8374 0.719022C41.658 0.106931 43.5865 -0.115139 45.4982 0.0671924C47.4099 0.249524 49.2621 0.832192 50.9347 1.77746C52.6074 2.72273 54.0633 4.00953 55.2081 5.55451C56.353 7.0995 57.1612 8.86822 57.5806 10.7461L65.1819 44.7882C65.735 47.2651 65.3525 49.8596 64.1083 52.0704C62.8642 54.2813 60.8466 55.9517 58.4453 56.7591Z" fill="black"/>
<path d="M64.6063 85.2604C70.3948 85.2604 75.0873 80.558 75.0873 74.7573C75.0873 68.9567 70.3948 64.2543 64.6063 64.2543C58.8178 64.2543 54.1253 68.9567 54.1253 74.7573C54.1253 80.558 58.8178 85.2604 64.6063 85.2604Z" fill="#477BFF"/>
<path d="M57.2005 53.0031H57.2005C54.9844 53.7482 52.5707 53.6388 50.4308 52.6963C48.2909 51.7538 46.5783 50.0459 45.6275 47.906L32.6355 18.6668C31.9224 17.0619 31.5518 15.3254 31.5476 13.5686C31.5434 11.8118 31.9055 10.0735 32.6109 8.46523C33.3163 6.85692 34.3493 5.41409 35.6437 4.22924C36.938 3.0444 38.4652 2.14371 40.1272 1.58492L40.1273 1.58491C41.7977 1.0233 43.5672 0.819543 45.3212 0.986838C47.0753 1.15413 48.7747 1.68874 50.3094 2.55605C51.8441 3.42336 53.1799 4.60403 54.2303 6.02159C55.2808 7.43916 56.0224 9.06201 56.4071 10.7851L63.3815 42.0195C63.889 44.2921 63.5381 46.6726 62.3965 48.7012C61.255 50.7297 59.4038 52.2623 57.2005 53.0031Z" fill="#477BFF"/>
</svg>
