<svg width="152" height="152" viewBox="0 0 152 152" fill="none" xmlns="http://www.w3.org/2000/svg">
<path d="M75.9849 0.0351562C34.0189 0.0351562 0 34.0541 0 76.0162C0 117.982 34.0189 151.997 75.9811 151.997C117.943 151.997 151.966 117.982 151.966 76.0162C151.966 34.0541 117.947 0.0351562 75.9849 0.0351562Z" fill="#673AB7"/>
<path d="M110.728 55.4291V58.0276C110.728 58.7927 110.535 59.3647 110.153 59.7473C109.77 60.1299 109.198 60.323 108.433 60.323H104.448H100.463C100.02 60.323 99.6904 60.4405 99.4669 60.6829C99.2472 60.9253 99.1374 61.2889 99.1374 61.77V92.6829V123.588C99.1374 124.353 98.9442 124.929 98.5654 125.308C98.1828 125.69 97.6071 125.884 96.8419 125.884H93.6412H90.4442C89.6791 125.884 89.1033 125.69 88.7207 125.308C88.3419 124.929 88.1488 124.357 88.1488 123.588V112.418V101.251H87.9139H87.6715C86.7018 102.94 85.2927 104.206 83.4404 105.054C81.5919 105.899 79.3003 106.319 76.5578 106.319H74.8078H73.0578C70.2813 106.319 67.7813 105.91 65.5579 105.096C63.3306 104.285 61.3836 103.062 59.7132 101.429C58.0427 99.8041 56.7927 97.8723 55.9556 95.6526C55.1222 93.4253 54.7018 90.9026 54.7018 88.092V74.9291V61.77C54.7018 61.3306 54.6109 60.9859 54.4291 60.7435C54.251 60.5011 53.9783 60.3609 53.6147 60.323H50.1109H46.6109C45.8457 60.323 45.2738 60.1185 44.8912 59.717C44.5086 59.3155 44.3154 58.717 44.3154 57.9064V55.3723V52.8344C44.3154 52.1109 44.5086 51.5655 44.8912 51.2094C45.2738 50.8458 45.8457 50.6639 46.6109 50.6639H64.395H82.1791C79.6071 47.9859 77.1147 45.1526 74.7056 42.1564C72.2965 39.1564 69.9745 36.0011 67.7397 32.6753L64.3571 27.6602L60.9821 22.6526C60.823 22.3761 60.7056 22.0806 60.6222 21.7814C60.5427 21.4783 60.4972 21.1677 60.4972 20.8458C60.4972 20.2435 60.6488 19.7889 60.9518 19.4859C61.251 19.1867 61.7056 19.0352 62.3079 19.0352H65.9897H69.6715C70.395 19.0352 71.02 19.1867 71.5465 19.4859C72.0692 19.7889 72.4935 20.2435 72.8154 20.8458L81.448 34.7321L90.0806 48.6147C90.5275 49.3003 91.0086 49.8155 91.5351 50.1526C92.0578 50.4935 92.6222 50.6639 93.2245 50.6639H93.5275H93.8306H101.134H108.437C109.202 50.6639 109.774 50.842 110.156 51.2094C110.539 51.5692 110.732 52.1109 110.732 52.8344V55.4291H110.728Z" fill="white"/>
<path d="M86.8211 60.3164H76.9195H67.018C66.5711 60.3164 66.2377 60.4338 66.018 60.6763C65.7983 60.9187 65.6885 61.2823 65.6885 61.7634V74.3846V86.9982C65.6885 90.1384 66.4536 92.4906 67.9839 94.0588C69.5142 95.6308 71.8097 96.4149 74.8665 96.4149H76.4953H78.1241C79.8173 96.4149 81.2908 96.199 82.5445 95.7672C83.8021 95.3353 84.8438 94.6838 85.6658 93.8202C86.4915 92.9528 87.1127 91.9338 87.5256 90.7596C87.9385 89.5778 88.1468 88.2482 88.1468 86.7596V74.2634V61.7672C88.1468 61.2861 88.037 60.9187 87.8135 60.68C87.5938 60.4338 87.2642 60.3164 86.8211 60.3164Z" fill="#673AB7"/>
</svg>

